# xmcd
# 
# Track frame offsets:
#     150
#     17791
#     43291
#     56399
#     76970
#     88671
#     102682
#     116441
#     130162
#     147122
#     162553
#     184582
#     198294
#     218652
#     235834
# 
# Disc length: 3356
# 
# Revision: 1
# Processed by: cddbd v1.5.2PL0 Copyright (c) Steve Scherf et al.
# Submitted via: BonkEnc v1.0.15
# 
DISCID=cd0d1a0f
DTITLE=Various Artist - MITSUBISHI SAVRIN
DYEAR=0
DGENRE=Other
TTITLE0=Green Forest 
TTITLE1=Connie's Butterfly
TTITLE2=My Heart Will Go On 
TTITLE3=The Sacrod Hum 
TTITLE4=Vincent 
TTITLE5=Longer
TTITLE6=Superstar
TTITLE7=All I Have To Do Is Dream 
TTITLE8=All Rise
TTITLE9=Always Look On The Bright Side Of Live
TTITLE10=Solitude
TTITLE11=Ave Maria
TTITLE12=I'm Mot In Love
TTITLE13=The Rose 
TTITLE14=Tears In Your Eyes
EXTD=
EXTT0=
EXTT1=
EXTT2=
EXTT3=
EXTT4=
EXTT5=
EXTT6=
EXTT7=
EXTT8=
EXTT9=
EXTT10=
EXTT11=
EXTT12=
EXTT13=
EXTT14=
PLAYORDER=
